<?xml version="1.0" encoding="UTF-8" standalone="no"?>
<!DOCTYPE svg PUBLIC "-//W3C//DTD SVG 1.1//EN" "http://www.w3.org/Graphics/SVG/1.1/DTD/svg11.dtd">
<svg width="100%" height="100%" viewBox="0 0 1200 630" version="1.1" xmlns="http://www.w3.org/2000/svg" xmlns:xlink="http://www.w3.org/1999/xlink" xml:space="preserve" xmlns:serif="http://www.serif.com/" style="fill-rule:evenodd;clip-rule:evenodd;stroke-linecap:round;stroke-linejoin:round;">
    <g id="dark-background" serif:id="dark background">
        <rect x="-111" y="-62" width="1415" height="765" style="fill:rgb(45,45,45);"/>
        <path d="M1304,-62L1304,703L-111,703L-111,-62L1304,-62ZM1281,-39L-88,-39L-88,680L1281,680L1281,-39Z"/>
        <g transform="matrix(0.514,0,0,0.514,48,130.042)">
            <g id="icon.svg">
                <g>
                    <g id="pokeball" transform="matrix(1.08568,0,0,1.08568,15.3457,10.305)">
                        <g id="bottom" transform="matrix(0.990812,2.03295e-32,0,1.1019,-48.4764,-41.9315)">
                            <path d="M431.941,217.017C431.941,316.664 351.309,387.797 251.662,387.797C152.015,387.797 71.386,316.684 71.386,217.036L431.941,217.017Z" style="fill:white;"/>
                            <path d="M431.941,217.017C431.941,316.664 351.309,387.797 251.662,387.797C152.015,387.797 71.386,316.684 71.386,217.036L431.941,217.017ZM412.37,233.839L90.956,233.856C99.345,314.566 167.791,370.976 251.662,370.976C335.533,370.976 403.98,314.55 412.37,233.839Z"/>
                        </g>
                        <g id="top" transform="matrix(-0.990812,1.21339e-16,-1.36265e-16,-1.11269,450.225,448.805)">
                            <path d="M431.941,217.017C431.941,316.664 351.309,387.797 251.662,387.797C152.015,387.797 71.386,316.684 71.386,217.036L431.941,217.017Z" style="fill:rgb(218,14,0);"/>
                            <path d="M431.941,217.017C431.941,316.664 351.309,387.797 251.662,387.797C152.015,387.797 71.386,316.684 71.386,217.036L431.941,217.017ZM412.277,233.766L91.049,233.783C99.392,314.54 167.767,371.049 251.662,371.049C335.557,371.049 403.933,314.524 412.277,233.766Z"/>
                        </g>
                        <g id="circle" transform="matrix(1.08922,0,0,1.08922,-98.7645,-125.516)">
                            <g id="center">
                                <g id="circle1" serif:id="circle">
                                    <circle cx="275.094" cy="299.769" r="46.526" style="fill:white;"/>
                                    <path d="M275.094,253.243C300.773,253.243 321.621,274.091 321.621,299.769C321.621,325.448 300.773,346.295 275.094,346.295C249.416,346.295 228.568,325.448 228.568,299.769C228.568,274.091 249.416,253.243 275.094,253.243ZM275.094,269.804C258.556,269.804 245.129,283.231 245.129,299.769C245.129,316.307 258.556,329.734 275.094,329.734C291.632,329.734 305.059,316.307 305.059,299.769C305.059,283.231 291.632,269.804 275.094,269.804Z"/>
                                </g>
                            </g>
                        </g>
                    </g>
                    <g id="phone" transform="matrix(1.17204,0,0,1.17204,67.7689,72.2431)">
                        <g transform="matrix(0.788651,0,0,0.737632,139.958,33.586)">
                            <g id="shape">
                                <path d="M212.918,191.745C216.125,191.745 219.2,193.106 221.467,195.53C223.734,197.954 225.008,201.242 225.008,204.67L225.008,395.73C225.008,399.158 223.734,402.445 221.467,404.869C219.2,407.293 216.125,408.655 212.918,408.655L110.298,408.655C107.092,408.655 104.017,407.293 101.75,404.869C99.482,402.445 98.209,399.158 98.209,395.73L98.209,204.67C98.209,201.242 99.482,197.954 101.75,195.53C104.017,193.106 107.092,191.745 110.298,191.745L212.918,191.745Z"/>
                                <path d="M212.918,191.745C216.125,191.745 219.2,193.106 221.467,195.53C223.734,197.954 225.008,201.242 225.008,204.67L225.008,395.73C225.008,399.158 223.734,402.445 221.467,404.869C219.2,407.293 216.125,408.655 212.918,408.655L110.298,408.655C107.092,408.655 104.017,407.293 101.75,404.869C99.482,402.445 98.209,399.158 98.209,395.73L98.209,204.67C98.209,201.242 99.482,197.954 101.75,195.53C104.017,193.106 107.092,191.745 110.298,191.745L212.918,191.745ZM212.918,204.425L110.298,204.425C110.237,204.425 110.179,204.451 110.136,204.497C110.093,204.543 110.069,204.605 110.069,204.67L110.069,395.73C110.069,395.795 110.093,395.857 110.136,395.903C110.179,395.948 110.237,395.974 110.298,395.974L212.918,395.974C212.979,395.974 213.037,395.948 213.08,395.903C213.123,395.857 213.147,395.795 213.147,395.73L213.147,204.67C213.147,204.605 213.123,204.543 213.08,204.497C213.037,204.451 212.979,204.425 212.918,204.425Z"/>
                            </g>
                        </g>
                        <g id="screen" transform="matrix(0.755912,0,0,0.846791,137.967,18.8904)">
                            <g transform="matrix(0.821987,0,0,0.743639,38.4009,55.6157)">
                                <path d="M219.124,191.745C220.684,191.745 222.181,192.356 223.284,193.445C224.388,194.534 225.008,196.01 225.008,197.55L225.008,402.85C225.008,404.389 224.388,405.866 223.284,406.955C222.181,408.043 220.684,408.655 219.124,408.655L104.092,408.655C102.532,408.655 101.035,408.043 99.932,406.955C98.829,405.866 98.209,404.389 98.209,402.85L98.209,197.55C98.209,196.01 98.829,194.534 99.932,193.445C101.035,192.356 102.532,191.745 104.092,191.745L219.124,191.745Z" style="fill:rgb(62,62,62);"/>
                            </g>
                            <g transform="matrix(0.727403,0,0,0.577247,-136.47,154.13)">
                                <path d="M386.287,307.795C387.181,307.795 388.039,308.194 388.671,308.905C389.303,309.617 389.658,310.581 389.658,311.587L389.658,337.165C389.658,338.171 389.303,339.136 388.671,339.847C388.039,340.558 387.181,340.958 386.287,340.958L363.548,340.958C362.654,340.958 361.796,340.558 361.164,339.847C360.532,339.136 360.177,338.171 360.177,337.165L360.177,311.587C360.177,310.581 360.532,309.617 361.164,308.905C361.796,308.194 362.654,307.795 363.548,307.795L386.287,307.795Z" style="fill:rgb(179,240,111);fill-opacity:0.69;"/>
                            </g>
                            <g transform="matrix(0.727403,0,0,0.577247,-136.226,29.7749)">
                                <path d="M386.287,307.795C387.181,307.795 388.039,308.194 388.671,308.905C389.303,309.617 389.658,310.581 389.658,311.587L389.658,337.165C389.658,338.171 389.303,339.136 388.671,339.847C388.039,340.558 387.181,340.958 386.287,340.958L363.548,340.958C362.654,340.958 361.796,340.558 361.164,339.847C360.532,339.136 360.177,338.171 360.177,337.165L360.177,311.587C360.177,310.581 360.532,309.617 361.164,308.905C361.796,308.194 362.654,307.795 363.548,307.795L386.287,307.795Z" style="fill:rgb(106,122,229);"/>
                            </g>
                            <g transform="matrix(0.727403,0,0,0.577247,-136.226,56.4839)">
                                <path d="M386.287,307.795C387.181,307.795 388.039,308.194 388.671,308.905C389.303,309.617 389.658,310.581 389.658,311.587L389.658,337.165C389.658,338.171 389.303,339.136 388.671,339.847C388.039,340.558 387.181,340.958 386.287,340.958L363.548,340.958C362.654,340.958 361.796,340.558 361.164,339.847C360.532,339.136 360.177,338.171 360.177,337.165L360.177,311.587C360.177,310.581 360.532,309.617 361.164,308.905C361.796,308.194 362.654,307.795 363.548,307.795L386.287,307.795Z" style="fill:rgb(210,122,61);"/>
                            </g>
                            <g transform="matrix(0.727403,0,0,0.577247,-101.354,85.3596)">
                                <path d="M386.287,307.795C387.181,307.795 388.039,308.194 388.671,308.905C389.303,309.617 389.658,310.581 389.658,311.587L389.658,337.165C389.658,338.171 389.303,339.136 388.671,339.847C388.039,340.558 387.181,340.958 386.287,340.958L363.548,340.958C362.654,340.958 361.796,340.558 361.164,339.847C360.532,339.136 360.177,338.171 360.177,337.165L360.177,311.587C360.177,310.581 360.532,309.617 361.164,308.905C361.796,308.194 362.654,307.795 363.548,307.795L386.287,307.795Z" style="fill:rgb(155,65,140);fill-opacity:0.7;"/>
                            </g>
                            <g transform="matrix(0.727403,0,0,0.577247,-101.475,154.13)">
                                <path d="M386.287,307.795C387.181,307.795 388.039,308.194 388.671,308.905C389.303,309.617 389.658,310.581 389.658,311.587L389.658,337.165C389.658,338.171 389.303,339.136 388.671,339.847C388.039,340.558 387.181,340.958 386.287,340.958L363.548,340.958C362.654,340.958 361.796,340.558 361.164,339.847C360.532,339.136 360.177,338.171 360.177,337.165L360.177,311.587C360.177,310.581 360.532,309.617 361.164,308.905C361.796,308.194 362.654,307.795 363.548,307.795L386.287,307.795Z" style="fill:rgb(89,101,180);"/>
                            </g>
                            <g transform="matrix(0.727403,0,0,0.577247,-101.475,29.7749)">
                                <path d="M386.287,307.795C387.181,307.795 388.039,308.194 388.671,308.905C389.303,309.617 389.658,310.581 389.658,311.587L389.658,337.165C389.658,338.171 389.303,339.136 388.671,339.847C388.039,340.558 387.181,340.958 386.287,340.958L363.548,340.958C362.654,340.958 361.796,340.558 361.164,339.847C360.532,339.136 360.177,338.171 360.177,337.165L360.177,311.587C360.177,310.581 360.532,309.617 361.164,308.905C361.796,308.194 362.654,307.795 363.548,307.795L386.287,307.795Z" style="fill:rgb(179,64,111);"/>
                            </g>
                            <g transform="matrix(0.727403,0,0,0.577247,-101.475,56.4839)">
                                <path d="M386.287,307.795C387.181,307.795 388.039,308.194 388.671,308.905C389.303,309.617 389.658,310.581 389.658,311.587L389.658,337.165C389.658,338.171 389.303,339.136 388.671,339.847C388.039,340.558 387.181,340.958 386.287,340.958L363.548,340.958C362.654,340.958 361.796,340.558 361.164,339.847C360.532,339.136 360.177,338.171 360.177,337.165L360.177,311.587C360.177,310.581 360.532,309.617 361.164,308.905C361.796,308.194 362.654,307.795 363.548,307.795L386.287,307.795Z" style="fill:rgb(72,124,194);"/>
                            </g>
                            <g transform="matrix(0.727403,0,0,0.577247,-136.226,85.3596)">
                                <path d="M386.287,307.795C387.181,307.795 388.039,308.194 388.671,308.905C389.303,309.617 389.658,310.581 389.658,311.587L389.658,337.165C389.658,338.171 389.303,339.136 388.671,339.847C388.039,340.558 387.181,340.958 386.287,340.958L363.548,340.958C362.654,340.958 361.796,340.558 361.164,339.847C360.532,339.136 360.177,338.171 360.177,337.165L360.177,311.587C360.177,310.581 360.532,309.617 361.164,308.905C361.796,308.194 362.654,307.795 363.548,307.795L386.287,307.795Z" style="fill:rgb(101,179,111);"/>
                            </g>
                            <g transform="matrix(0.727403,0,0,0.577247,-66.4312,154.13)">
                                <path d="M386.287,307.795C387.181,307.795 388.039,308.194 388.671,308.905C389.303,309.617 389.658,310.581 389.658,311.587L389.658,337.165C389.658,338.171 389.303,339.136 388.671,339.847C388.039,340.558 387.181,340.958 386.287,340.958L363.548,340.958C362.654,340.958 361.796,340.558 361.164,339.847C360.532,339.136 360.177,338.171 360.177,337.165L360.177,311.587C360.177,310.581 360.532,309.617 361.164,308.905C361.796,308.194 362.654,307.795 363.548,307.795L386.287,307.795Z" style="fill:rgb(229,65,75);"/>
                            </g>
                            <g transform="matrix(0.727403,0,0,0.577247,-66.4312,29.7749)">
                                <path d="M386.287,307.795C387.181,307.795 388.039,308.194 388.671,308.905C389.303,309.617 389.658,310.581 389.658,311.587L389.658,337.165C389.658,338.171 389.303,339.136 388.671,339.847C388.039,340.558 387.181,340.958 386.287,340.958L363.548,340.958C362.654,340.958 361.796,340.558 361.164,339.847C360.532,339.136 360.177,338.171 360.177,337.165L360.177,311.587C360.177,310.581 360.532,309.617 361.164,308.905C361.796,308.194 362.654,307.795 363.548,307.795L386.287,307.795Z" style="fill:rgb(72,88,194);"/>
                            </g>
                            <g transform="matrix(0.727403,0,0,0.577247,-66.4312,56.4839)">
                                <path d="M386.287,307.795C387.181,307.795 388.039,308.194 388.671,308.905C389.303,309.617 389.658,310.581 389.658,311.587L389.658,337.165C389.658,338.171 389.303,339.136 388.671,339.847C388.039,340.558 387.181,340.958 386.287,340.958L363.548,340.958C362.654,340.958 361.796,340.558 361.164,339.847C360.532,339.136 360.177,338.171 360.177,337.165L360.177,311.587C360.177,310.581 360.532,309.617 361.164,308.905C361.796,308.194 362.654,307.795 363.548,307.795L386.287,307.795Z" style="fill:rgb(101,179,111);"/>
                            </g>
                        </g>
                    </g>
                </g>
            </g>
        </g>
    </g>
    <g id="shiny">
        <g transform="matrix(-0.279473,0.279473,-0.475766,-0.475766,41.252,565.121)">
            <rect x="-191" y="-402" width="494" height="890" style="fill:rgb(226,211,37);"/>
        </g>
        <g transform="matrix(3.95181,0,0,3.95181,-786.223,525.745)">
            <path d="M218.002,12.34L216.652,16.003C216.571,16.223 216.36,16.37 216.125,16.37C215.89,16.37 215.679,16.223 215.598,16.003L214.248,12.34C214.19,12.183 214.067,12.06 213.91,12.002L210.247,10.652C210.027,10.571 209.88,10.36 209.88,10.125C209.88,9.89 210.027,9.679 210.247,9.598L213.91,8.248C214.067,8.19 214.19,8.067 214.248,7.91L215.598,4.247C215.679,4.027 215.89,3.88 216.125,3.88C216.36,3.88 216.571,4.027 216.652,4.247L218.002,7.91C218.06,8.067 218.183,8.19 218.34,8.248L222.003,9.598C222.223,9.679 222.37,9.89 222.37,10.125C222.37,10.36 222.223,10.571 222.003,10.652L218.34,12.002C218.183,12.06 218.06,12.183 218.002,12.34Z" style="fill-rule:nonzero;stroke:black;stroke-width:1.05px;"/>
            <path d="M220.625,1.125L220.625,4.5" style="fill:none;fill-rule:nonzero;stroke:black;stroke-width:1.05px;"/>
            <path d="M222.313,2.813L218.938,2.813" style="fill:none;fill-rule:nonzero;stroke:black;stroke-width:1.05px;"/>
            <path d="M224,5.063L224,7.313" style="fill:none;fill-rule:nonzero;stroke:black;stroke-width:1.05px;"/>
            <path d="M225.125,6.188L222.875,6.188" style="fill:none;fill-rule:nonzero;stroke:black;stroke-width:1.05px;"/>
        </g>
    </g>
    <g id="gender" transform="matrix(1.12933,0,0,1.12933,-186.162,-101.837)">
        <g id="male" transform="matrix(0.909811,0,0,0.909811,127.138,86.7005)">
            <g id="blue" transform="matrix(0.282422,0.282422,-0.461085,0.461085,1164.22,576.18)">
                <rect x="-191" y="-402" width="494" height="890" style="fill:rgb(37,75,226);"/>
            </g>
            <g transform="matrix(0.234106,-2.77556e-17,0,0.234106,1121.07,575.531)">
                <text x="0px" y="0px" style="font-family:'AppleColorEmoji', 'Apple Color Emoji';font-size:250px;fill:white;">♂</text>
            </g>
        </g>
        <g id="female" transform="matrix(0.909811,0,0,0.909811,120.054,67.4734)">
            <g id="pink" transform="matrix(0.292067,0.292067,-0.403529,0.403529,1145.76,622.478)">
                <rect x="-191" y="-402" width="494" height="890" style="fill:rgb(236,59,146);"/>
            </g>
            <g transform="matrix(0.234106,-2.77556e-17,0,0.234106,1128.49,598.768)">
                <text x="0px" y="0px" style="font-family:'AppleColorEmoji', 'Apple Color Emoji';font-size:250px;fill:white;">♀</text>
            </g>
        </g>
    </g>
    <g id="primary-text-wrapper" transform="matrix(0.51568,0,0,0.51568,353.226,242.481)">
        <g id="primary-text1" serif:id="primary text">
            <text id="primary-text" serif:id="primary-text" x="0px" y="0px" style="font-family:'HelveticaNeue-Bold', 'Helvetica Neue';font-weight:700;font-size:170.649px;fill:white;">Top Text</text>
        </g>
    </g>
    <g id="secondary-text-wrapper" transform="matrix(0.51568,0,0,0.51568,351.778,343.596)">
        <g id="secondary-text1">
            <text id="secondary-text" serif:id="secondary-text" x="0px" y="0px" style="font-family:'Helvetica';font-size:170.649px;fill:white;">Bottom Text</text>
        </g>
    </g>
</svg>
